<?xml version="1.0" encoding="utf-8"?>
<!-- Generator: Adobe Illustrator 28.0.0, SVG Export Plug-In . SVG Version: 6.00 Build 0)  -->
<svg version="1.1" id="Capa_1" xmlns="http://www.w3.org/2000/svg" xmlns:xlink="http://www.w3.org/1999/xlink" x="0px" y="0px"
	 viewBox="0 0 1025 1037.5" style="enable-background:new 0 0 1025 1037.5;" xml:space="preserve">
<style type="text/css">
	.st0{fill:#FFFFFF;}
	.st1{fill-rule:evenodd;clip-rule:evenodd;}
</style>
<g>
	<path class="st0" d="M836.78,1020H190.66c-97.32,0-176.21-78.89-176.21-176.21V197.67c0-97.32,78.89-176.21,176.21-176.21h646.13
		c97.32,0,176.21,78.89,176.21,176.21v646.13C1012.99,941.11,934.1,1020,836.78,1020z"/>
	<g>
		<path class="st1" d="M485.24,562.43c-2.68-30.8-41.93-78.63-41.93-78.63c-0.51-0.51-1.03-1.02-1.55-1.52
			c-14.25-13.8-30.87-24.18-49.36-31.36c-18.93-7.35-38.65-10.99-58.96-10.99c-5.81,0-11.64,0.52-17.39,1.34
			c-3.61,0.52-7.28,1.22-10.84,2.24l115.67-160.87H282.37L169.24,451.34c-14.64,21.83-27.36,44.92-37.69,69.1
			c-10.32,24.16-14.64,49.95-14.64,76.14c0,24.23,4.36,47.92,14.67,69.94c9.6,20.52,22.88,38.45,39.98,53.31
			c17.33,15.05,37.23,26.1,58.89,33.61c23.24,8.05,47.5,11.63,72.06,11.63c24.46,0,48.56-3.67,71.72-11.62
			c21.78-7.47,41.82-18.49,59.23-33.61c17.25-14.98,30.47-33.22,39.99-53.98c10.38-22.66,14.66-47.08,14.66-71.9
			C488.11,583.3,487.21,572.76,485.24,562.43z M354.08,649.16c-13.99,14.22-31.85,19.81-51.57,19.81c-20.1,0-38.1-5.95-51.85-21.07
			c-13.04-14.35-19.23-31.3-19.23-50.66c0-19.83,5.66-37.75,19.83-51.91c14.16-14.17,32.08-19.82,51.91-19.82
			c19.71,0,37.47,5.68,51.22,20.12c13.48,14.16,19.2,31.53,19.2,50.96C373.59,616.46,368.22,634.8,354.08,649.16z"/>
		<g>
			<path d="M818.01,567.45H711.39H569.35c-7.43,12.31-14.86,24.63-22.29,36.94c-3.81,0.88-7.71,1.5-11.79,1.41
				c-9.08-0.2-16.95-3.29-25.44-6.28c-2.56-0.9-5.06-2.18-7.35-3.5c0.12,2.96,0.2,5.93,0.2,8.92c0,23.82-3.91,46.73-11.12,68.12
				v1.18h219.83v90.83h106.62v-90.83h63.84V567.45H818.01z"/>
			<path d="M523.88,591.12l25.56-23.67h19.91c5.5-9.11,11-18.22,16.49-27.33c5.23-10.17,4.08-15.96-5.04-20.8
				c-11.91-6.31-23.93-12.39-35.9-18.57c-16.76-8.66-33.55-17.25-50.26-26.01c-8.22-4.31-16.2-4.08-24.1,0.52
				c-3.04,1.77-5.3,4.19-6.68,6.99c21.97,31.17,35.78,68.49,38.37,108.87H523.88z"/>
			<path d="M523.88,591.12h-21.66c0.1,1.63,0.19,3.27,0.26,4.91c2.29,1.32,4.78,2.6,7.35,3.5c8.48,2.99,16.35,6.08,25.44,6.28
				c4.09,0.09,7.98-0.53,11.79-1.41c7.43-12.31,14.86-24.63,22.29-36.94h-19.91L523.88,591.12z"/>
			<path d="M541.06,471.01c27.92,11.33,55.79,22.78,83.77,33.96c4.04,1.62,8.58,2,12.27,2.82c3.79-1.33,6.79-2.04,9.48-3.39
				c17.77-8.93,35.46-18.02,53.19-27.03c5.09-2.58,9.26-6.04,9.04-12.22c-0.22-6.19-4.6-9.28-9.93-11.45
				c-28.09-11.4-56.14-22.87-84.21-34.33c-7.6-3.1-14.9-2.74-22.27,1.09c-17.32,9.02-34.77,17.8-52.19,26.62
				c-5.26,2.66-9.62,6.11-9.28,12.59C531.25,465.92,535.8,468.87,541.06,471.01z"/>
			<path d="M657.58,409.6c25.91,10.55,51.97,20.76,77.62,31.9c11.87,5.15,22.27,5.15,33.67-1.34c15.56-8.85,31.81-16.46,47.77-24.61
				c5.13-2.62,8.78-6.23,8.27-12.55c-0.59-6.15-4.97-8.8-9.98-10.84c-27.9-11.36-55.8-22.75-83.73-34.03
				c-2.62-1.06-5.55-2.18-8.25-2c-4.54,0.31-9.44,0.75-13.44,2.69c-18.05,8.76-35.85,18.02-53.69,27.19
				c-7.2,3.7-9.81,8.47-8.16,14.55C649.03,405.65,653.13,407.79,657.58,409.6z"/>
			<path d="M768.99,347.07c27.96,11.33,55.85,22.81,83.85,34.05c3.89,1.56,8.22,2.04,12.35,3.01c14.79-1.77,20.28-14.88,14.26-25.78
				c-10.32-18.67-19.49-37.98-29.22-56.98c-5.39-10.53-13.05-13.08-23.64-7.75c-19.55,9.83-39.02,19.82-58.53,29.74
				c-5.06,2.57-9.27,5.9-8.98,12.22C759.37,341.84,763.65,344.91,768.99,347.07z"/>
		</g>
	</g>
</g>
</svg>
