<?xml version="1.0" encoding="utf-8"?>
<!-- Generator: Adobe Illustrator 28.0.0, SVG Export Plug-In . SVG Version: 6.00 Build 0)  -->
<svg version="1.1" id="Capa_1" xmlns="http://www.w3.org/2000/svg" xmlns:xlink="http://www.w3.org/1999/xlink" x="0px" y="0px"
	 viewBox="0 0 1673 555" style="enable-background:new 0 0 1673 555;" xml:space="preserve">
<style type="text/css">
	.st0{fill-rule:evenodd;clip-rule:evenodd;fill:#FFFFFF;}
	.st1{fill:#FFFFFF;}
</style>
<g>
	<g>
		<path class="st0" d="M1198.8,416.8c0,16.6-2.8,33-9.6,48.2c-6.2,14-14.9,26.4-26.2,36.7c-11.3,10.2-24.2,18-38.4,23.4
			c-15,5.7-30.7,8.3-46.7,8.3c-15.9,0-31.5-2.7-46.4-8.3c-14.2-5.4-27.2-13.1-38.4-23.4c-11.2-10.3-19.8-22.8-26-36.7
			c-6.8-15.3-9.6-31.6-9.6-48.2c0-16.6,2.8-32.9,9.6-48c6.2-13.8,14.8-26.1,26-36.3c11.2-10.2,24.2-17.6,38.4-22.7
			c15-5.3,30.6-7.8,46.4-7.8c15.9,0,31.6,2.4,46.6,7.8c14.2,5.1,27.2,12.6,38.4,22.7c11.3,10.2,20,22.4,26.2,36.3
			C1196,384,1198.8,400.3,1198.8,416.8L1198.8,416.8z M1124.8,436.7c2.1-6.5,3.2-13.1,3.2-19.9c0-6.8-1.1-13.4-3.4-19.9
			c-2.2-6.3-5.4-12-9.7-17.1c-4.3-5.1-9.6-9-15.6-12c-6.7-3.3-14-4.6-21.4-4.6c-7.4,0-14.8,1.3-21.4,4.6c-5.9,3-11.1,6.9-15.3,12
			c-4.2,5.1-7.2,10.8-9.3,17.1c-2.1,6.5-3.2,13.1-3.2,19.9c0,6.8,1.1,13.4,3.2,19.9c2.1,6.4,5.2,12.3,9.5,17.5
			c4.3,5.3,9.5,9.4,15.6,12.4c6.7,3.3,14,4.6,21.4,4.6c7.4,0,14.8-1.3,21.4-4.6c6.1-3,11.3-7.1,15.6-12.4
			C1119.6,449,1122.7,443.1,1124.8,436.7z"/>
		<rect x="870.9" y="308.9" class="st0" width="73.4" height="217.7"/>
		<path class="st0" d="M946.1,225.6c2.3,5,3.4,10.4,3.4,15.9c0,5.5-1.1,10.8-3.4,15.9c-2.2,4.8-5.1,9.1-8.9,12.7
			c-3.9,3.7-8.4,6.5-13.4,8.5c-5.2,2.1-10.6,3.1-16.2,3.1c-11.5,0-21.6-3.7-29.8-11.8c-7.9-7.8-12-17.2-12-28.3
			c0-5.3,1-10.5,3.1-15.4c2.1-4.9,5.1-9.2,9-12.8c3.9-3.6,8.4-6.5,13.3-8.7c5.2-2.3,10.8-3.3,16.5-3.3c5.6,0,11,1,16.2,3.1
			c5,2,9.5,4.8,13.4,8.5C941,216.6,943.9,220.9,946.1,225.6z"/>
		<path class="st0" d="M787.4,500.2c-7.2,10.4-17,18.1-28.6,23.4c-13.1,6-26.9,9-41.4,9c-15.2,0-30.1-2.8-43.8-9.6
			c-12.6-6.3-23.6-14.8-32.6-25.6c-9.1-10.9-15.8-23.4-20.3-36.9c-4.7-14.1-7-28.7-7-43.6c0-14.8,2.3-29.4,7.2-43.4
			c4.6-13.4,11.4-25.7,20.5-36.5c9-10.6,19.9-18.9,32.4-24.9c13.4-6.5,27.9-9.2,42.7-9.2c14.1,0,28.4,2.4,40.8,9.2
			c8.9,4.9,17.6,11,24.4,18.5V206.9h73.4v319.7h-67.8V500.2L787.4,500.2z M781.2,437.1c2.4-6.4,3.6-13,3.6-19.8
			c0-6.8-1.2-13.5-3.6-19.8c-2.3-6.4-5.7-12.2-10.1-17.3c-4.4-5.1-9.7-9.2-15.8-12.2c-6.6-3.3-13.7-4.6-21-4.6
			c-7.4,0-14.8,1.3-21.4,4.6c-6,3-11.2,6.9-15.6,12c-4.3,5-7.4,10.8-9.5,17c-2.1,6.5-3.2,13.1-3.2,19.9c0,6.9,1.1,13.6,3.2,20.1
			c2,6.4,5.2,12.3,9.5,17.5c4.3,5.2,9.6,9.2,15.6,12.2c6.7,3.3,14,4.6,21.4,4.6c7.3,0,14.5-1.3,21-4.6c6.1-3,11.4-7.1,15.8-12.2
			C775.5,449.3,778.9,443.5,781.2,437.1z"/>
		<path class="st0" d="M531.9,498.8c-2.5,4.1-5.4,7.9-8.8,11.3c-4.4,4.6-9.5,8.3-15,11.5c-5.9,3.4-12.3,5.9-18.8,7.9
			c-7.1,2.1-14.4,3.1-21.7,3.1c-12.7,0-25.7-2-37.1-7.9c-9.6-5-18.1-11.7-24.6-20.5c-6.4-8.5-10.9-18.2-13.6-28.5
			c-2.8-10.6-4.1-21.5-4.1-32.5V308.9H462v117.9c0,5.7,0.4,11.4,1.3,17.1c0.8,5,2.3,9.8,4.8,14.2c2.3,4,5.3,7.3,9.3,9.7
			c4.5,2.7,10.1,3.5,15.3,3.5c11.3,0,20.7-3.9,27.2-13.3c6.6-9.4,9.5-20.2,9.5-31.6V308.9h73.4v217.7h-70.8V498.8z"/>
		<path class="st0" d="M323,364.6v80.8c0,7.2,1,16,5.6,21.9c4.5,5.9,13,7.1,19.9,7.1c3.6,0,7.2-0.3,10.8-0.9
			c3.1-0.5,6.5-1.2,9.4-2.5l1.8-0.8l0.9,54.7l-0.9,0.3c-6,2.1-12.5,3.5-18.8,4.6c-7.5,1.3-15.1,2-22.7,2c-12.2,0-25.2-1.2-36.7-5.5
			c-9.2-3.4-17.6-8.5-24.1-15.9c-6.3-7.2-10.5-15.5-13-24.7c-2.8-10.3-3.9-21-3.9-31.7v-89.4h-34.5v-55.7h34.1v-56.6H323v56.6h50.5
			v55.7H323z"/>
		<path class="st0" d="M171.2,374.6c-5.9-5.6-12.7-10.1-20-13.6c-7.6-3.7-15.6-5.5-24.1-5.5c-6.2,0-12.2,1.2-17.8,3.8
			c-5.2,2.4-7.7,6.5-7.7,12.2c0,5.9,3.2,9.5,8.5,11.8c9.1,3.8,20.2,6.4,29.8,8.6c8.4,1.9,16.6,4.3,24.6,7.4
			c8.1,3.1,15.7,7.3,22.6,12.7c6.8,5.3,12.2,11.8,16.3,19.4c4.5,8.4,6.2,17.9,6.2,27.4c0,12.2-2.2,24.4-8.4,35
			c-5.5,9.4-12.7,17.2-21.8,23.1c-9.2,6-19.3,10.2-30,12.7c-10.9,2.6-22,3.9-33.1,3.9c-17.8,0-35.2-2.9-52-8.5
			c-15.9-5.3-30.5-13.4-42.6-25.1l-0.9-0.9l41.6-43.8l0.9,1c6.5,7.1,14.3,12.7,22.9,17c9.1,4.5,18.7,6.8,28.8,6.8
			c5.8,0,11.3-1.4,16.5-4c5.5-2.7,7.7-7.3,7.7-13.3c0-6.6-3.7-10.8-9.6-13.5c-9.7-4.4-21.8-7.4-32.1-9.8c-7.7-1.8-15.3-4.1-22.6-7
			c-7.4-2.9-14.3-6.8-20.4-11.9c-6.2-5.1-11.1-11.4-14.8-18.5c-4.2-8.2-5.8-17.4-5.8-26.5c0-11.8,2.2-23.5,8.4-33.7
			c5.5-9.1,12.7-16.7,21.6-22.6c8.9-6,18.7-10.2,29.1-12.9c10.3-2.7,20.9-4.1,31.6-4.1c16.3,0,32.2,2.6,47.7,7.6
			c14.8,4.8,28.3,12.3,39.6,23l1,0.9l-40.7,42L171.2,374.6z"/>
		<g>
			<path class="st0" d="M1364.2,276.8c-1.4-15.9-21.6-40.6-21.6-40.6c-0.3-0.3-0.5-0.5-0.8-0.8c-7.4-7.1-15.9-12.5-25.5-16.2
				c-9.8-3.8-19.9-5.7-30.4-5.7c-3,0-6,0.3-9,0.7c-1.9,0.3-3.8,0.6-5.6,1.2l59.7-83h-71.5l-58.4,87c-7.6,11.3-14.1,23.2-19.4,35.7
				c-5.3,12.5-7.6,25.8-7.6,39.3c0,12.5,2.2,24.7,7.6,36.1c5,10.6,11.8,19.8,20.6,27.5c8.9,7.8,19.2,13.5,30.4,17.3
				c12,4.2,24.5,6,37.2,6c12.6,0,25.1-1.9,37-6c11.2-3.9,21.6-9.5,30.6-17.3c8.9-7.7,15.7-17.1,20.6-27.9
				c5.4-11.7,7.6-24.3,7.6-37.1C1365.7,287.6,1365.2,282.2,1364.2,276.8z M1296.6,321.6c-7.2,7.3-16.4,10.2-26.6,10.2
				c-10.4,0-19.7-3.1-26.8-10.9c-6.7-7.4-9.9-16.2-9.9-26.1c0-10.2,2.9-19.5,10.2-26.8c7.3-7.3,16.6-10.2,26.8-10.2
				c10.2,0,19.3,2.9,26.4,10.4c7,7.3,9.9,16.3,9.9,26.3C1306.6,304.7,1303.8,314.2,1296.6,321.6z"/>
			<polygon class="st1" points="1546.3,276.2 1491.3,276.2 1407.7,276.2 1394.5,288.4 1377.7,288.4 1377.7,313.2 1377.8,313.2 
				1377.8,331.3 1491.3,331.3 1491.3,378.1 1546.3,378.1 1546.3,331.3 1579.2,331.3 1579.2,276.2 			"/>
		</g>
	</g>
	<g id="Hjm4Vk.tif_00000029044045047126178940000013629030740338519963_">
		<g>
			<path class="st1" d="M1422.8,258.2c-6-3.2-12.1-6.3-18.1-9.4c-8.5-4.4-16.9-8.7-25.4-13.1c-4.1-2.2-8.2-2.1-12.2,0.3
				c-3.6,2.1-5.1,6.1-3.6,10.1c3.7,9.9,7.5,19.8,11.2,29.7c0.7,1.8,1.2,3.8,1.4,5.8c0.4,4,0.9,8,1.3,12c0.3,0.2,0.6,0.4,1,0.6
				c1.4,0.3,4.9,3.2,8.6,4.5c4.3,1.5,8.3,3.1,12.8,3.2c2.1,0,4-0.3,6-0.7c6.3-10.5,12.7-21,19-31.6c0.4-0.7,0.8-1.4,1.1-2.2
				C1427.8,263,1427,260.4,1422.8,258.2z"/>
			<path class="st1" d="M1456,246.2c-1.9-0.4-4.2-0.6-6.2-1.4c-14.1-5.6-28.2-11.4-42.3-17.1c-2.7-1.1-5-2.6-5.1-5.7
				c-0.2-3.3,2-5,4.7-6.4c8.8-4.5,17.6-8.9,26.3-13.4c3.7-1.9,7.4-2.1,11.2-0.6c14.2,5.8,28.3,11.6,42.5,17.3c2.7,1.1,4.9,2.7,5,5.8
				c0.1,3.1-2,4.9-4.6,6.2c-9,4.5-17.9,9.1-26.8,13.6C1459.4,245.1,1457.9,245.5,1456,246.2z"/>
			<path class="st1" d="M1557.9,190.7c0.3,3.2-1.6,5-4.2,6.3c-8.1,4.1-16.3,8-24.1,12.4c-5.8,3.3-11,3.3-17,0.7
				c-13-5.6-26.1-10.8-39.2-16.1c-2.2-0.9-4.3-2-5-4.6c-0.8-3.1,0.5-5.5,4.1-7.3c9-4.6,18-9.3,27.1-13.7c2-1,4.5-1.2,6.8-1.4
				c1.4-0.1,2.8,0.5,4.2,1c14.1,5.7,28.2,11.4,42.3,17.2C1555.4,186.3,1557.6,187.6,1557.9,190.7z"/>
			<path class="st1" d="M1587.6,179.1c-2.1-0.5-4.3-0.7-6.2-1.5c-14.1-5.7-28.2-11.5-42.3-17.2c-2.7-1.1-4.9-2.6-5-5.8
				c-0.1-3.2,2-4.9,4.5-6.2c9.8-5,19.7-10,29.5-15c5.3-2.7,9.2-1.4,11.9,3.9c4.9,9.6,9.5,19.3,14.8,28.8
				C1597.9,171.6,1595.1,178.3,1587.6,179.1z"/>
		</g>
	</g>
	<g id="iBDYWz_00000137835183833154903560000008522694386183394234_">
		<g>
			<path class="st1" d="M1622.1,90.2c-19.9,0-35.8-16-35.8-35.9c0-19.9,16-35.8,35.9-35.7c19.9,0,35.7,16,35.7,36
				C1658,74.3,1642,90.2,1622.1,90.2z M1650.8,54.3c0-15.8-12.9-28.6-28.6-28.6c-15.8,0-28.6,12.8-28.7,28.6
				c0,15.8,12.9,28.7,28.7,28.7C1638,83,1650.8,70.1,1650.8,54.3z"/>
			<path class="st1" d="M1628.5,54.7c3.7,1.4,5.3,4.4,6.9,7.5c1.6,3.3,3.2,6.5,5,10.1c-3.4,0-6.6,0-9.8-0.1c-0.3,0-0.8-0.7-1-1.1
				c-1.4-2.7-2.7-5.5-4.1-8.3c-2.2-4.3-4.2-5.3-9.3-4.7c0,4.6,0,9.2,0,14c-3.3,0-6.4,0-9.6,0c0-12.4,0-24.8,0-37.2
				c0.1,0,0.1-0.2,0.2-0.2c6.9,0.2,13.8-0.1,20.6,0.7c7.1,0.9,10.3,7.9,7.2,14.4C1633.4,52.4,1631.2,53.8,1628.5,54.7z M1616.2,41.9
				c0,3.2,0,6.3,0,9.6c1.3,0,2.6,0,3.8,0c0.8,0,1.5-0.1,2.2-0.2c2.6-0.4,3.7-2,3.6-5c-0.1-2.6-1.3-4.1-3.8-4.3
				C1620.2,41.8,1618.3,41.9,1616.2,41.9z"/>
		</g>
	</g>
</g>
</svg>
